<?xml version="1.0" encoding="utf-8"?>
<!-- Generator: Adobe Illustrator 24.1.2, SVG Export Plug-In . SVG Version: 6.00 Build 0)  -->
<svg version="1.1" id="Layer_1" xmlns="http://www.w3.org/2000/svg" xmlns:xlink="http://www.w3.org/1999/xlink" x="0px" y="0px"
	 viewBox="0 0 300 300" style="enable-background:new 0 0 300 300;" xml:space="preserve">
<style type="text/css">
	.st0{fill:#43CBDE;}
</style>
<g>
	<path class="st0" d="M256.54,161.57c-4.62,3.72-6.46,3.32-8.91-2.49c-8.81-20.91-17.62-41.83-26.13-62.86
		c-1.83-4.52-4.57-7.11-9-8.91c-19.05-7.73-37.92-15.93-57.05-23.47c-3.24-1.28-7.85-1.33-11.08-0.05
		c-19.61,7.77-39.08,15.91-58.39,24.4c-3.16,1.39-6.32,4.71-7.7,7.9c-8.82,20.52-17.14,41.25-25.65,61.91
		c-0.67,1.63-1.21,3.6-2.46,4.61c-1.12,0.91-3.36,1.3-4.69,0.81c-1.03-0.38-1.78-2.43-1.99-3.84c-0.17-1.08,0.64-2.35,1.1-3.49
		c8.83-21.48,17.71-42.94,26.48-64.45c2.15-5.26,5.77-8.73,10.98-10.88c19.66-8.13,39.32-16.25,58.88-24.63
		c6.15-2.63,11.81-2.57,17.93,0.05c19.4,8.28,38.9,16.34,58.43,24.33c5.61,2.3,9.34,6.01,11.63,11.64
		c8.35,20.53,16.89,40.98,25.37,61.45c0.67,1.62,1.5,3.18,2.26,4.77C256.54,159.44,256.54,160.5,256.54,161.57z"/>
	<path class="st0" d="M196.73,245.78c0-24.6,0-48.4,0-72.2c0-8.43-0.2-8.63-8.69-8.64c-25.76,0-51.52-0.01-77.29,0
		c-7.1,0-7.67,0.56-7.67,7.51c-0.01,24.16,0,48.31,0,72.69c-0.98,0.23-1.8,0.59-2.61,0.59c-12.08,0.04-24.16-0.04-36.24,0.07
		c-4.5,0.04-6.51-1.91-6.5-6.37c0.03-24.34-0.03-48.68,0.06-73.02c0.01-1.87,0.72-3.81,1.45-5.59c8.31-20.36,16.6-40.73,25.17-60.98
		c0.96-2.27,3.32-4.58,5.6-5.58c18.38-7.99,36.85-15.77,55.41-23.32c2.29-0.93,5.6-1.03,7.87-0.11
		c18.74,7.59,37.39,15.41,55.94,23.45c2.27,0.98,4.55,3.36,5.53,5.65c8.73,20.38,17.22,40.86,25.62,61.37
		c1.04,2.54,1.59,5.47,1.61,8.23c0.13,22.74,0.09,45.48,0.06,68.22c-0.01,7.1-0.93,7.99-8,8
		C221.83,245.79,209.6,245.78,196.73,245.78z M149.92,100.79c-7.98,0-15.97,0.09-23.94-0.04c-3.8-0.06-5.61,1.5-5.6,5.31
		c0.03,10.64,0.02,21.28,0.01,31.93c0,3.54,1.78,5.16,5.27,5.15c16.14-0.02,32.28-0.03,48.42,0.01c3.85,0.01,5.37-1.92,5.34-5.63
		c-0.07-10.46-0.04-20.93-0.02-31.39c0.01-3.76-1.68-5.44-5.53-5.37C165.89,100.89,157.9,100.79,149.92,100.79z"/>
	<path class="st0" d="M149.9,212.87c12.05,10.93,23.56,21.37,35.88,32.55c-24.24,0-47.33,0-71.75,0
		C126.32,234.26,137.88,223.77,149.9,212.87z"/>
	<path class="st0" d="M188.94,237.25c-11.31-10.24-21.9-19.83-32.97-29.86c10.94-9.92,21.6-19.59,32.97-29.9
		C188.94,197.7,188.94,216.89,188.94,237.25z"/>
	<path class="st0" d="M110.89,177.56c11.26,10.19,21.85,19.77,32.94,29.82c-10.91,9.89-21.59,19.56-32.94,29.85
		C110.89,217.1,110.89,197.92,110.89,177.56z"/>
	<path class="st0" d="M182,172.77c-11.13,10.09-21.44,19.45-32.1,29.11c-10.66-9.66-20.98-19.02-32.11-29.11
		C139.49,172.77,160.08,172.77,182,172.77z"/>
	<path class="st0" d="M149.92,100.79c7.98,0,15.97,0.1,23.94-0.04c3.85-0.07,5.54,1.61,5.53,5.37c-0.03,10.46-0.05,20.93,0.02,31.39
		c0.02,3.71-1.49,5.63-5.34,5.63c-16.14-0.03-32.28-0.02-48.42-0.01c-3.49,0-5.27-1.61-5.27-5.15c0.01-10.64,0.02-21.28-0.01-31.93
		c-0.01-3.81,1.8-5.37,5.6-5.31C133.96,100.88,141.94,100.79,149.92,100.79z M128.15,108.39c0,9.24,0,17.98,0,26.85
		c14.74,0,29.1,0,43.42,0c0-9.23,0-17.98,0-26.85C156.99,108.39,142.84,108.39,128.15,108.39z"/>
</g>
</svg>
