<?xml version="1.0" encoding="utf-8"?>
<!-- Generator: Adobe Illustrator 24.1.2, SVG Export Plug-In . SVG Version: 6.00 Build 0)  -->
<svg version="1.1" id="Layer_1" xmlns="http://www.w3.org/2000/svg" xmlns:xlink="http://www.w3.org/1999/xlink" x="0px" y="0px"
	 viewBox="0 0 300 300" style="enable-background:new 0 0 300 300;" xml:space="preserve">
<style type="text/css">
	.st0{fill:#43CBDE;}
</style>
<g>
	<path class="st0" d="M114.72,149.75c-0.01,14.55,0.03,29.11-0.02,43.66c-0.02,7.17-1.88,9.05-8.85,9.26
		c-17.3,0.53-17.43,0.42-17.44-17.14c-0.01-25.88-0.01-51.75,0.01-77.63c0.01-9.17,1.5-10.66,10.45-10.69
		c15.85-0.06,15.85-0.06,15.85,15.54C114.73,125.09,114.73,137.42,114.72,149.75z"/>
	<path class="st0" d="M210.84,150.45c0,14.35,0.04,28.7-0.02,43.05c-0.03,7.23-1.82,9-8.88,9.19c-17.19,0.44-17.21,0.43-17.21-16.64
		c0-26.27-0.03-52.55-0.01-78.82c0.01-8.52,1.45-9.94,9.81-10.02c16.28-0.15,16.29-0.15,16.3,16.25
		C210.85,125.79,210.84,138.12,210.84,150.45z"/>
	<path class="st0" d="M85.38,150.42c0,10.1-0.15,20.2,0.07,30.29c0.08,3.9-1.19,5.44-5.14,5.42c-16.22-0.07-18.3,1.59-17.9-16.76
		c0.34-15.34,0.05-30.69,0.08-46.04c0.02-7.56,2.09-9.55,9.77-9.65c13.12-0.17,13.12-0.17,13.12,13.11
		C85.38,134.67,85.38,142.54,85.38,150.42z"/>
	<path class="st0" d="M214.1,149.78c0-10.32,0.14-20.65-0.07-30.97c-0.07-3.66,1.16-5.11,4.8-5.13
		c16.62-0.08,18.53-1.33,18.18,16.59c-0.31,15.38-0.03,30.77-0.1,46.15c-0.03,7.67-2.07,9.59-9.8,9.66
		c-13.02,0.13-13.02,0.13-13.02-12.63C214.1,165.57,214.1,157.68,214.1,149.78z"/>
	<path class="st0" d="M118.28,159.38c0-6.41,0-12.58,0-19.14c20.97,0,41.68,0,62.81,0c0,6.26,0,12.43,0,19.14
		C160.41,159.38,139.71,159.38,118.28,159.38z"/>
	<path class="st0" d="M59.05,138.63c0,8.11,0,14.3,0,21.84c-3.83-0.85-9.6-0.95-9.97-2.42c-1.28-5.04-1.46-10.74-0.32-15.79
		C49.13,140.57,54.71,140.05,59.05,138.63z"/>
	<path class="st0" d="M240.3,160.62c0-7.58,0-13.75,0-21.52c4.08,1.05,10.25,1.26,10.74,3.04c1.37,4.96,1.23,10.81-0.14,15.8
		C250.44,159.58,244.39,159.68,240.3,160.62z"/>
</g>
</svg>
