<?xml version="1.0" encoding="utf-8"?>
<!-- Generator: Adobe Illustrator 24.1.2, SVG Export Plug-In . SVG Version: 6.00 Build 0)  -->
<svg version="1.1" id="Layer_1" xmlns="http://www.w3.org/2000/svg" xmlns:xlink="http://www.w3.org/1999/xlink" x="0px" y="0px"
	 viewBox="0 0 300 300" style="enable-background:new 0 0 300 300;" xml:space="preserve">
<style type="text/css">
	.st0{fill:#43CBDE;}
</style>
<g>
	<path class="st0" d="M143.49,202.13c-9.69-1.78-17.46-6.54-24.13-13.29c-0.58-0.58-1.54-0.88-2.38-1.1
		c-21.29-5.72-39.6-16.28-53.8-33.4c-11.08-13.36-17.56-28.85-20.84-45.77c-2-10.34-2.6-20.79-2.48-31.3
		c0.01-0.72,0.08-1.44,0.13-2.37c13.86,0,27.6,0,41.62,0c-0.77-11.77-1.52-23.31-2.29-35.05c47.25,0,94,0,141.36,0
		c-0.75,11.57-1.5,23.06-2.27,34.85c13.77,0,27.57,0,41.68,0c0,3.87,0.09,7.44-0.02,11c-0.41,14.25-2.53,28.2-7.67,41.58
		c-10.77,28.04-30.79,46.7-58.71,56.97c-7.37,2.71-14.54,5.16-20.5,10.72c-4.45,4.16-10.45,5.98-16.45,7.14
		c0,5.95-0.22,11.77,0.08,17.55c0.2,3.93,2.71,6.96,5.39,9.68c6.78,6.9,15.18,11.33,23.79,15.42c2.44,1.16,4.97,2.15,7.27,3.53
		c3.4,2.04,4.42,4.2,3.68,6.74c-0.92,3.12-3.4,4.89-7.1,4.9c-26.64,0.08-53.28,0.14-79.92,0.23c-2.47,0.01-4.51-0.75-5.93-2.82
		c-1.82-2.63-1.65-5.2,0.82-7.21c1.75-1.43,3.77-2.63,5.83-3.55c7.94-3.57,15.66-7.52,22.49-12.97c2.04-1.63,3.93-3.47,5.72-5.38
		c3.22-3.43,4.8-7.5,4.65-12.29C143.38,211.42,143.49,206.92,143.49,202.13z M105.85,170.13c-2.26-5.2-4.57-10.05-6.53-15.05
		c-8.19-20.94-12.5-42.83-15.59-65c-0.24-1.73-0.87-2.12-2.46-2.11C72.59,88.03,63.9,87.99,55.22,88c-0.63,0-1.26,0.12-1.86,0.18
		C51.22,121.21,76.53,160.83,105.85,170.13z M246.69,88.01c-9.74,0-19.32-0.03-28.89,0.08c-0.48,0.01-1.25,1.08-1.37,1.75
		c-1.38,7.82-2.47,15.69-3.99,23.48c-3.75,19.26-8.94,38.07-17.91,55.65c-0.15,0.3-0.17,0.67-0.27,1.13
		C223.25,161.15,248.76,121.26,246.69,88.01z"/>
</g>
</svg>
