<?xml version="1.0" encoding="utf-8"?>
<!-- Generator: Adobe Illustrator 24.1.2, SVG Export Plug-In . SVG Version: 6.00 Build 0)  -->
<svg version="1.1" id="Layer_1" xmlns="http://www.w3.org/2000/svg" xmlns:xlink="http://www.w3.org/1999/xlink" x="0px" y="0px"
	 viewBox="0 0 300 300" style="enable-background:new 0 0 300 300;" xml:space="preserve">
<style type="text/css">
	.st0{fill:#B1F447;}
</style>
<g>
	<path class="st0" d="M150.93,230.54c0-6.55,0-12.85,0-19.15c0-11.3,0.03-22.6-0.04-33.91c-0.01-1.09-0.37-2.34-0.97-3.25
		c-17.14-25.97-34.32-51.91-51.55-77.81c-1.18-1.77-1.38-3.58-1.2-5.53c0.17-1.85,1.53-2.79,3.95-2.79c6.93-0.02,13.87-0.01,20.8,0
		c15.6,0,31.21-0.02,46.81,0.05c1.63,0.01,2.46-0.55,3.23-1.94c4.25-7.7,8.64-15.33,12.86-23.04c1.33-2.44,3.16-3.42,5.87-3.4
		c11.72,0.06,23.44,0.02,35.16,0.03c3.21,0,5.48,1.92,5.56,4.66c0.09,2.91-2.07,4.94-5.44,4.95c-10.54,0.03-21.08,0.04-31.62,0
		c-1.39-0.01-2.23,0.36-2.94,1.67c-2.76,5.12-5.67,10.16-8.52,15.24c-0.26,0.46-0.46,0.97-0.85,1.79c3.93,0,7.58,0,11.22,0
		c5.41,0,10.82-0.03,16.23,0c4.22,0.03,6.37,3.9,4.12,7.53c-2.12,3.41-4.4,6.73-6.62,10.08c-15.04,22.7-30.11,45.39-45.09,68.13
		c-0.78,1.18-1.27,2.79-1.28,4.2c-0.09,16.64-0.06,33.28-0.06,49.92c0,0.81,0,1.62,0,2.68c5.32,0,10.36,0,15.4,0
		c4.3,0,8.6-0.03,12.9-0.02c3.27,0,5.47,1.88,5.51,4.66c0.04,2.9-2.16,4.94-5.49,4.94c-22.12,0.02-44.24,0.03-66.37,0.01
		c-3.18,0-5.36-2.05-5.35-4.86c0.01-2.79,2.21-4.73,5.43-4.74c8.74-0.01,17.48,0,26.21,0C149.42,230.63,150.03,230.58,150.93,230.54
		z M106.23,94.69c0.4,0.77,0.68,1.37,1.03,1.94c2.74,4.49,5.54,8.94,8.2,13.49c0.87,1.49,1.82,2.08,3.6,2.06
		c11.36-0.09,22.73-0.19,34.09,0.05c3.22,0.07,4.97-0.87,6.37-3.73c2.27-4.63,4.97-9.06,7.62-13.81
		C146.68,94.69,126.57,94.69,106.23,94.69z M168.48,112.01c1,0.06,1.6,0.12,2.2,0.12c7.14,0,14.28-0.05,21.42,0.03
		c1.39,0.02,2.11-0.49,2.79-1.6c2.83-4.6,5.74-9.15,8.61-13.73c0.39-0.62,0.72-1.28,1.07-1.91c-0.28-0.16-0.39-0.28-0.5-0.28
		c-8.25-0.03-16.49-0.06-24.74-0.03c-0.5,0-1.23,0.39-1.48,0.82C174.75,100.8,171.72,106.24,168.48,112.01z"/>
	<path class="st0" d="M101.87,118.16c1.31-0.1,2.63-0.16,3.94-0.32c2.78-0.32,4.76,0.96,5.06,3.33c0.3,2.43-1.2,4.21-3.99,4.6
		c-10.19,1.41-19.28-1.18-27.01-7.96c-10.69-9.37-14.15-24.33-8.84-37.33c5.37-13.15,18.32-21.59,32.53-20.66
		c13.02,0.85,22.54,7.35,28.34,19.1c1.42,2.88,0.82,5.16-1.45,6.23c-2.32,1.09-4.41,0.08-5.76-2.77
		c-5.24-11.1-17.11-16.77-29.04-13.88c-11.54,2.8-19.37,13.46-18.95,25.8c0.39,11.54,9.26,21.45,21.02,23.46
		C99.09,118,100.48,118.03,101.87,118.16z"/>
</g>
</svg>
