<?xml version="1.0" encoding="utf-8"?>
<!-- Generator: Adobe Illustrator 24.1.2, SVG Export Plug-In . SVG Version: 6.00 Build 0)  -->
<svg version="1.1" id="Layer_1" xmlns="http://www.w3.org/2000/svg" xmlns:xlink="http://www.w3.org/1999/xlink" x="0px" y="0px"
	 viewBox="0 0 300 300" style="enable-background:new 0 0 300 300;" xml:space="preserve">
<style type="text/css">
	.st0{fill:#43CBDE;}
</style>
<g>
	<path class="st0" d="M234.15,54.66c-0.42,1.35-0.48,3-1.31,4c-5.12,6.17-10.08,12.53-15.72,18.22
		c-24.21,24.44-48.67,48.64-72.96,73c-7.76,7.78-12.85,17.06-14.45,28.02c-0.28,1.94-0.15,4.01,0.17,5.96
		c0.49,3.04,1.61,4.18,4.53,5.42c-11.33,0.09-20.03-10.97-17.24-21.98c2.05-8.1,6.71-14.82,12.42-20.62
		c11.33-11.5,22.63-23.08,34.71-33.78c20.16-17.87,40.91-35.1,61.45-52.53c2.47-2.1,5.26-3.82,7.9-5.72
		C233.82,54.66,233.99,54.66,234.15,54.66z"/>
	<path class="st0" d="M59.48,244.24c1.01-5.21,2.08-10.42,3.03-15.64c1.73-9.51,3.4-19.03,5.14-28.86
		c7.79,0.29,15.58-0.94,23.21,1.12c5.03,1.36,8.73,4.5,9.71,9.77c1.08,5.78-0.95,10.72-5.44,14.52c-4.46,3.76-9.87,4.69-15.51,4.73
		c-4.39,0.03-4.37,0.03-5.12,4.44c-0.48,2.88-1.09,5.73-1.5,8.62c-0.23,1.59-0.79,2.32-2.55,2.21c-3.65-0.23-7.32-0.28-10.98-0.4
		C59.48,244.57,59.48,244.4,59.48,244.24z M77.02,219.93c2.2,0,4.13,0.19,6.01-0.05c2.45-0.31,4.35-1.73,4.61-4.25
		c0.14-1.39-0.31-3.8-1.16-4.16c-2.2-0.93-4.77-0.99-7.2-1.3c-0.18-0.02-0.59,0.72-0.67,1.14
		C78.05,214.08,77.57,216.87,77.02,219.93z"/>
	<path class="st0" d="M88.47,245.11c2.98-5.23,5.68-10.01,8.4-14.78c5.43-9.5,10.9-18.97,16.25-28.52c0.91-1.62,1.91-2.22,3.74-2.12
		c2.76,0.16,5.53,0.09,8.3,0.02c1.35-0.04,2.07,0.24,2.4,1.77c2.39,11,5.13,21.94,7.2,32.99c0.58,3.1-0.67,6.56-1.14,9.84
		c-0.04,0.29-0.53,0.58-0.87,0.73c-0.28,0.13-0.66,0.06-0.99,0.06c-2.58-0.07-5.85,0.77-7.55-0.48c-1.51-1.12-1.38-4.55-1.79-7
		c-0.24-1.45-0.84-1.94-2.31-1.91c-3.77,0.09-7.55-0.08-11.32,0.11c-0.91,0.05-2.09,0.86-2.61,1.67c-1.53,2.38-2.21,5.97-4.32,7.14
		c-2.32,1.29-5.85,0.42-8.86,0.48C91.69,245.13,90.36,245.11,88.47,245.11z M120.17,226.09c-0.64-3.76-1.25-7.35-1.97-11.63
		c-2.17,4.26-4,7.85-5.93,11.63C115.03,226.09,117.49,226.09,120.17,226.09z"/>
	<path class="st0" d="M230.41,199.73c3.37,15.11,6.69,30.04,10.11,45.37c-4.39,0-8.38,0.06-12.36-0.07
		c-0.51-0.02-1.26-0.94-1.44-1.57c-0.48-1.76-0.86-3.58-1-5.4c-0.14-1.8-0.84-2.42-2.67-2.35c-3.6,0.13-7.21,0.11-10.8,0.01
		c-1.48-0.04-2.28,0.48-2.9,1.79c-1,2.11-2.09,4.18-3.31,6.17c-0.4,0.64-1.29,1.32-2.01,1.37c-2.41,0.17-4.84,0.06-7.96,0.06
		c1.05-4.51,1.25-9.14,3.18-12.87c5.4-10.44,11.55-20.5,17.33-30.74c0.76-1.34,1.61-1.85,3.15-1.8
		C223.23,199.81,226.74,199.73,230.41,199.73z M221.47,214.44c-2.17,4.25-4.02,7.89-5.94,11.65c2.83,0,5.31,0,7.9,0
		C222.81,222.37,222.2,218.79,221.47,214.44z"/>
	<path class="st0" d="M235,98.18c-0.61,1.36-0.96,2.93-1.88,4.04c-4.71,5.75-9.31,11.64-14.43,17.02
		c-11.24,11.83-22.8,23.36-34.17,35.07c-1.8,1.85-3.5,3.85-4.94,5.98c-3.68,5.42-4.2,9.22-2.47,15.4
		c-10.14-6.39-12.47-19.11-4.16-27.57c9.37-9.54,19.35-18.51,29.52-27.21c8.45-7.22,17.53-13.72,26.4-20.44
		c1.6-1.22,3.55-1.99,5.33-2.96C234.47,97.74,234.74,97.96,235,98.18z"/>
	<path class="st0" d="M118.38,147.28c-1.93-2.4-4.04-4.68-5.77-7.22c-4.71-6.92-4.64-13.78,0.98-19.98
		c5.55-6.12,11.46-11.99,17.79-17.29c12.69-10.63,25.76-20.82,38.71-31.14c1.29-1.03,2.87-1.71,4.34-2.49
		c0.42-0.22,0.93-0.26,2.24-0.61c-0.76,1.83-1.04,3.32-1.87,4.35c-4.4,5.46-8.68,11.06-13.5,16.14
		c-11.81,12.43-23.93,24.57-35.87,36.88c-1.68,1.73-3.23,3.64-4.55,5.65C117.33,136.97,116.85,140.93,118.38,147.28z"/>
	<path class="st0" d="M186.39,199.91c-2,11.4-3.98,22.63-6.01,34.17c5.56,0,10.88,0,16.57,0c-0.62,3.56-1.14,6.8-1.78,10.02
		c-0.08,0.39-0.78,0.94-1.2,0.95c-9.38,0.05-18.76,0.04-28.62,0.04c2.72-15.21,5.38-30.11,8.07-45.18
		C177.65,199.91,181.8,199.91,186.39,199.91z"/>
	<path class="st0" d="M142.96,199.86c4.36,0,8.44,0,12.94,0c-2,11.41-3.97,22.62-6.01,34.23c5.46,0,10.68,0,16.13,0
		c-0.67,3.83-1.28,7.27-1.91,10.85c-9.7,0-19.29,0-29.29,0C137.55,229.83,140.25,214.85,142.96,199.86z"/>
	<path class="st0" d="M135.02,72.81c-1.42,2.05-2.36,3.82-3.67,5.25c-6.49,7.08-13.08,14.08-19.64,21.1
		c-1.31,1.4-2.7,2.74-4.02,4.14c-2.94,3.12-5.29,6.49-4.34,11.26c-5.18-3.71-6.33-9.8-2.28-14.17
		c9.34-10.09,19.78-18.98,31.05-26.88c0.41-0.28,0.87-0.5,1.34-0.68C133.65,72.74,133.92,72.81,135.02,72.81z"/>
</g>
</svg>
