<?xml version="1.0" encoding="utf-8"?>
<!-- Generator: Adobe Illustrator 24.1.2, SVG Export Plug-In . SVG Version: 6.00 Build 0)  -->
<svg version="1.1" id="Layer_1" xmlns="http://www.w3.org/2000/svg" xmlns:xlink="http://www.w3.org/1999/xlink" x="0px" y="0px"
	 viewBox="0 0 300 300" style="enable-background:new 0 0 300 300;" xml:space="preserve">
<style type="text/css">
	.st0{fill:#43CBDE;}
</style>
<g>
	<path class="st0" d="M79.13,242.17c-5.81-1.68-10.67-4.56-14.08-9.54c-1.27-1.86-1.49-3.62-0.13-5.83
		c15.69-25.49,36.51-45.51,62.95-59.62c10.59-5.65,21.29-11.11,31.82-16.88c13.3-7.29,25.51-16.07,34.66-28.35
		c4.4-5.91,7.88-12.51,11.76-18.81c0.3-0.49,0.44-1.09,0.41-1.76c-0.2,0.24-0.43,0.46-0.58,0.72c-9.39,15.92-22.97,27.2-39.53,34.91
		c-11.68,5.44-23.66,10.24-35.5,15.32c-17.22,7.39-33.24,16.67-46.8,29.81c-0.24,0.23-0.53,0.4-0.88,0.67
		c-4.53-9.3-6.8-19.02-5.67-29.21c2.84-25.61,16.57-43.24,39.98-53.61c12.24-5.42,25.13-8.64,38.14-11.5
		c7.97-1.75,15.96-3.43,23.85-5.51c16-4.23,30.38-11.22,40.6-25.14c0.32,0.36,0.58,0.56,0.72,0.83
		c19.46,37.18,20.74,74.61,0.54,111.81c-13.46,24.79-35.15,38.6-62.63,43.66c-14.46,2.66-28.85,2.56-42.93-2.1
		c-4.4-1.46-8.59-3.56-13.15-5.48C92.25,216.38,85.74,229.25,79.13,242.17z"/>
</g>
</svg>
