<?xml version="1.0" encoding="utf-8"?>
<!-- Generator: Adobe Illustrator 24.1.2, SVG Export Plug-In . SVG Version: 6.00 Build 0)  -->
<svg version="1.1" id="Layer_1" xmlns="http://www.w3.org/2000/svg" xmlns:xlink="http://www.w3.org/1999/xlink" x="0px" y="0px"
	 viewBox="0 0 300 300" style="enable-background:new 0 0 300 300;" xml:space="preserve">
<style type="text/css">
	.st0{fill:#43CBDE;}
</style>
<g>
	<path class="st0" d="M170.56,202.9c-22.3,0-44.59,0-66.89,0c-4.25,0-6.85-1.82-7.88-5.67c-0.22-0.84-0.32-1.82-0.12-2.64
		c0.98-3.96,1.92-7.95,3.16-11.83c2.22-6.95,7.35-10.9,14.18-12.64c2.94-0.75,6.04-1.11,9.08-1.14c12.32-0.12,24.64-0.05,36.96-0.01
		c1.82,0.01,3.26-0.56,4.58-1.83c2.4-2.29,4.88-4.49,7.41-6.65c0.37-0.32,1.24-0.4,1.72-0.2c4.95,1.99,9.59,1.33,13.75-1.84
		c3.27-2.49,5.03-5.96,5.2-10.11c0.05-1.13,0.37-1.55,1.53-1.65c8.14-0.72,16.27-1.5,24.4-2.29c2.84-0.27,5.67-0.57,8.5-0.93
		c3.97-0.51,7.63,1.52,8.71,4.91c1.37,4.3-1.04,8.49-5.65,9.43c-3.04,0.62-6.14,0.89-9.22,1.3c-7.42,1-14.84,1.99-22.26,2.98
		c-0.51,0.07-1.02,0.13-1.53,0.15c-2.69,0.08-4.66,1.32-6.45,3.33c-2.65,2.98-5.61,5.7-8.4,8.56c-2.17,2.23-4.32,4.48-6.44,6.76
		c-1.13,1.22-1.27,2.87-0.34,4.21c0.23,0.33,0.75,0.63,1.15,0.65c5.91,0.26,11.82,0.44,17.73,0.69c9.87,0.41,19.74,0.84,29.61,1.28
		c5.23,0.23,10.48,0.33,15.69,0.77c5.51,0.46,8.29,5.14,6.26,10.07c-1.1,2.66-3.39,4.24-6.41,4.29c-3.84,0.07-7.67,0.04-11.51,0.04
		C208.24,202.9,189.4,202.9,170.56,202.9C170.56,202.9,170.56,202.9,170.56,202.9z"/>
	<path class="st0" d="M148.05,227.07c-9.25,0-18.5,0-27.75,0c-4.66,0-6.93,2.2-7.02,6.84c-0.02,1.28-0.03,2.56,0.01,3.83
		c0.03,0.91-0.29,1.33-1.24,1.32c-2.13-0.03-4.26-0.02-6.39,0.02c-0.92,0.01-1.33-0.34-1.31-1.28c0.04-1.41,0.07-2.81,0.03-4.22
		c-0.15-4.22-2.53-6.5-6.72-6.5c-9.33,0-18.67-0.01-28,0.01c-4.22,0.01-6.57,2.38-6.61,6.59c-0.01,1.07-0.03,2.13-0.03,3.2
		c0,2.47-0.02,4.95,0.04,7.42c0.03,1.16-0.4,1.6-1.57,1.56c-2-0.07-4-0.04-6-0.01c-0.91,0.02-1.34-0.32-1.33-1.26
		c0.07-9.76,0.04-19.52,0.25-29.28c0.09-3.98,1.73-7.62,3.72-11.04c1-1.72,2.67-2.53,4.61-2.54c8.4-0.04,16.8-0.04,25.19,0
		c1.91,0.01,3.65,0.78,4.91,2.17c3.82,4.22,8.51,5.37,14.12,5.35c43.48-0.16,86.96-0.09,130.44-0.09c1.78,0,3.49,0.22,5.02,1.21
		c2.25,1.46,3.39,3.55,3.4,6.22c0.03,6.95,0,13.9,0.05,20.84c0.01,1.22-0.38,1.68-1.62,1.63c-1.91-0.08-3.84-0.07-5.75,0
		c-1.13,0.04-1.64-0.3-1.57-1.52c0.09-1.44,0.06-2.9,0.02-4.35c-0.11-3.59-2.48-6.08-6.06-6.09c-11-0.06-21.99-0.06-32.99,0
		c-3.46,0.02-5.91,2.56-5.98,6.05c-0.07,3.66-0.01,7.33-0.01,11c0,1.52-0.2,1.7-1.68,1.69c-1.96-0.01-3.92-0.03-5.88,0.01
		c-0.98,0.02-1.37-0.35-1.36-1.35c0.04-3.45,0.03-6.91,0.01-10.36c-0.02-4.79-2.29-7.05-7.07-7.06
		C166.63,227.07,157.34,227.08,148.05,227.07C148.05,227.07,148.05,227.07,148.05,227.07z"/>
	<path class="st0" d="M152.99,145.35c-0.35,2.04-0.7,3.96-1.01,5.88c-0.52,3.19-1.04,6.39-1.51,9.59c-0.18,1.23-0.81,1.81-2.03,1.82
		c-2.39,0.02-4.77,0.06-7.16,0.05c-5.92-0.01-11.85-0.07-17.77-0.07c-5.88,0-11.64,0.73-17.26,3.29c0.38-2.93,0.7-5.66,1.11-8.38
		c2.46-16.22,5.71-32.29,9.89-48.16c1.41-5.33,4.16-9.56,9.13-12.18c2.88-1.52,5.69-1.45,8.51,0.23c1.46,0.87,2.99,1.64,4.52,2.37
		c2.24,1.07,4.54,1.08,6.8,0.06c1.36-0.61,2.73-1.22,3.98-2.02c3.6-2.3,7.04-2.07,10.49,0.31c5.37,3.7,10.78,7.34,16.17,11
		c2.85,1.94,5.73,3.85,8.56,5.83c1.4,0.98,2.89,1.3,4.58,1.21c8.72-0.47,17.45-0.92,26.18-1.31c4.39-0.2,7.78,2.89,7.93,7.1
		c0.15,4.19-3.05,7.52-7.51,7.75c-5.45,0.28-10.9,0.5-16.35,0.76c-4.26,0.2-8.52,0.39-12.77,0.65c-2.88,0.18-5.46-0.5-7.84-2.14
		c-6.08-4.17-12.19-8.29-18.29-12.43c-1.58-1.07-1.79-0.98-2.23,0.86c-0.89,3.73-1.8,7.45-2.72,11.17
		c-0.42,1.71-0.34,1.93,1.29,2.61c7.55,3.14,15.1,6.26,22.65,9.41c3.88,1.62,5.84,4.96,5.08,8.57c-0.99,4.65-5.74,7.14-10.3,5.33
		c-3.6-1.43-7.16-2.97-10.74-4.45C160.62,148.51,156.89,146.97,152.99,145.35z"/>
	<path class="st0" d="M161.93,72.23c0,9.64-8.05,17.77-17.62,17.8c-10.06,0.03-18.17-7.96-18.18-17.91
		c-0.01-10.05,8.02-17.97,18.22-17.96C154.02,54.15,161.93,62.29,161.93,72.23z"/>
	<path class="st0" d="M89.81,177.55c0.29,9.43-7.5,17.95-17.84,17.93c-9.75-0.02-17.76-8.38-17.64-17.93
		c0.11-9.38,7.62-17.71,17.91-17.66C82.57,159.95,90.05,168.52,89.81,177.55z"/>
</g>
</svg>
