<?xml version="1.0" encoding="utf-8"?>
<!-- Generator: Adobe Illustrator 24.1.2, SVG Export Plug-In . SVG Version: 6.00 Build 0)  -->
<svg version="1.1" id="Layer_1" xmlns="http://www.w3.org/2000/svg" xmlns:xlink="http://www.w3.org/1999/xlink" x="0px" y="0px"
	 viewBox="0 0 300 300" style="enable-background:new 0 0 300 300;" xml:space="preserve">
<style type="text/css">
	.st0{fill:#43CBDE;}
	.st1{opacity:1;fill:#43CBDE;}
</style>
<g>
	<g>
		<path class="st0" d="M30.37,238.27v-4.02h17.25c1.08,0,1.9-0.27,2.48-0.82c0.58-0.55,0.87-1.28,0.87-2.18
			c0-0.99-0.29-1.74-0.87-2.23c-0.58-0.5-1.41-0.74-2.48-0.74H37.05c-1.08,0-2.05-0.16-2.93-0.49c-0.88-0.33-1.61-0.78-2.22-1.36
			c-0.6-0.58-1.07-1.27-1.39-2.07c-0.33-0.8-0.49-1.68-0.49-2.63c0-0.93,0.15-1.79,0.46-2.58c0.31-0.79,0.76-1.47,1.36-2.04
			c0.6-0.57,1.35-1.02,2.23-1.35c0.89-0.33,1.9-0.49,3.04-0.49h16.52v4.02H37.11c-0.93,0-1.65,0.25-2.15,0.74
			c-0.51,0.5-0.76,1.19-0.76,2.07c0,0.89,0.26,1.57,0.78,2.06c0.52,0.49,1.22,0.73,2.1,0.73h10.54c2.34,0,4.12,0.55,5.33,1.65
			c1.21,1.1,1.82,2.76,1.82,5c0,0.97-0.15,1.87-0.44,2.69c-0.3,0.82-0.74,1.53-1.33,2.14c-0.59,0.6-1.33,1.07-2.23,1.41
			c-0.9,0.34-1.95,0.51-3.15,0.51H30.37z"/>
		<path class="st0" d="M68.76,238.27v-18.99h-8.74v-4.02h21.49v4.02h-8.74v18.99H68.76z"/>
		<path class="st0" d="M106.99,238.27l-3.45-5.79H92.65l1.9-3.26h7.06l-5.13-8.61l-10.44,17.66h-4.59l13.23-22.03
			c0.23-0.4,0.51-0.72,0.82-0.95c0.32-0.23,0.7-0.35,1.14-0.35c0.44,0,0.82,0.12,1.12,0.35c0.31,0.23,0.57,0.55,0.81,0.95
			l13.26,22.03H106.99z"/>
		<path class="st0" d="M138.83,238.27l-5.82-6.39h-8.61v-3.54h9.59c1.46,0,2.55-0.4,3.29-1.19c0.74-0.79,1.11-1.94,1.11-3.43
			c0-1.5-0.39-2.61-1.16-3.34c-0.77-0.73-1.85-1.09-3.24-1.09h-12.53v18.99h-3.99v-23.01h16.52c1.31,0,2.48,0.2,3.51,0.59
			c1.03,0.39,1.91,0.95,2.63,1.68c0.72,0.73,1.27,1.61,1.65,2.64c0.38,1.03,0.57,2.19,0.57,3.48c0,1.92-0.42,3.53-1.25,4.83
			c-0.83,1.3-2,2.23-3.5,2.8l6.93,6.99H138.83z"/>
		<path class="st0" d="M160.29,238.27c-1.6,0-3.09-0.3-4.45-0.9c-1.36-0.6-2.54-1.42-3.54-2.47c-1-1.04-1.78-2.28-2.34-3.72
			s-0.84-2.99-0.84-4.65c0-1.69,0.28-3.23,0.84-4.62c0.56-1.39,1.34-2.58,2.34-3.56c1-0.98,2.18-1.74,3.54-2.28
			c1.36-0.54,2.84-0.81,4.45-0.81h12.47v4.02h-12.47c-1.03,0-1.99,0.19-2.86,0.55c-0.88,0.37-1.63,0.88-2.26,1.54
			c-0.63,0.65-1.13,1.43-1.49,2.34c-0.36,0.91-0.54,1.91-0.54,3.01c0,1.08,0.18,2.08,0.54,3.01c0.36,0.93,0.85,1.72,1.49,2.39
			c0.63,0.66,1.39,1.19,2.26,1.57c0.87,0.38,1.83,0.57,2.86,0.57h12.47v4.02H160.29z"/>
		<path class="st0" d="M203.17,238.27l-3.45-5.79h-10.89l1.9-3.26h7.06l-5.13-8.61l-10.44,17.66h-4.59l13.23-22.03
			c0.23-0.4,0.51-0.72,0.82-0.95c0.32-0.23,0.7-0.35,1.14-0.35c0.44,0,0.82,0.12,1.12,0.35c0.31,0.23,0.57,0.55,0.81,0.95
			l13.26,22.03H203.17z"/>
		<path class="st0" d="M235.01,238.27l-5.82-6.39h-8.61v-3.54h9.59c1.46,0,2.55-0.4,3.29-1.19c0.74-0.79,1.11-1.94,1.11-3.43
			c0-1.5-0.39-2.61-1.15-3.34c-0.77-0.73-1.85-1.09-3.24-1.09h-12.53v18.99h-3.99v-23.01h16.52c1.31,0,2.48,0.2,3.51,0.59
			c1.03,0.39,1.91,0.95,2.63,1.68c0.72,0.73,1.27,1.61,1.65,2.64c0.38,1.03,0.57,2.19,0.57,3.48c0,1.92-0.42,3.53-1.25,4.83
			s-2,2.23-3.5,2.8l6.93,6.99H235.01z"/>
		<path class="st0" d="M245.96,238.27v-23.01h13.32c1.62,0,3.12,0.27,4.49,0.82c1.37,0.55,2.55,1.32,3.54,2.31
			c0.99,0.99,1.77,2.18,2.33,3.56c0.56,1.38,0.84,2.91,0.84,4.57s-0.28,3.22-0.84,4.65c-0.56,1.43-1.34,2.67-2.33,3.72
			c-0.99,1.04-2.17,1.87-3.54,2.47c-1.37,0.6-2.87,0.9-4.49,0.9H245.96z M259.29,234.25c1.03,0,1.99-0.19,2.86-0.57
			c0.88-0.38,1.64-0.9,2.28-1.57c0.64-0.66,1.14-1.46,1.5-2.39c0.36-0.93,0.54-1.93,0.54-3.01c0-1.08-0.18-2.07-0.54-2.99
			c-0.36-0.92-0.86-1.7-1.5-2.36c-0.64-0.65-1.4-1.17-2.28-1.54c-0.88-0.37-1.83-0.55-2.86-0.55h-9.34v14.97H259.29z"/>
	</g>
	<g>
		<g>
			<g>
				<path class="st0" d="M96.9,119.15c16.08,3.37,30.86,11.42,46.36,16.6c18.15,5.98,37.27,10.67,56.54,8.2
					c39.92-6.73,24.14-38.56-21.63-19.06c-4.7,1.95-9.24,4.25-13.63,6.78c9.06-4.5,18.52-8.39,28.41-10.26
					c7.25-1.35,15.08-2,21.96,0.88c4.5,1.85,7.57,6.18,4.03,10.39c-4.67,5.67-12.41,7.68-19.5,8.76
					c-19.94,2.35-40.14-2.94-58.94-9.36c-14.33-4.95-28.26-11.9-43.29-14.58c-7.34-1.2-16.24-2.32-22.46,2.82
					c-6.06,5.52-4.3,14.98-1.49,21.73C66.37,121.24,77.73,114.98,96.9,119.15z"/>
				<path class="st0" d="M120.83,138.64c-8.81-3.65-18.02-8.13-27.91-7.48c-5.04,0.28-9.96,3.65-9.81,9.12
					c2.9-15.93,27.89-3.32,36.72,0.69c21.79,9.71,46.16,17.5,70.12,12.35C165.86,155.78,142.66,147.95,120.83,138.64z"/>
				<path class="st0" d="M151.35,185.59c-23.64-0.09-47.25-1.73-70.76-4.14c42.6,7.82,99.98,11.81,140.92-3.43
					c-5.7,1.61-11.46,2.93-17.29,3.89C186.77,184.86,169.03,185.65,151.35,185.59z"/>
				<path class="st0" d="M103.64,194.53c15.44,2.35,31.06,3.27,46.67,3.37c15.58-0.07,31.38-0.8,46.55-4.65
					C166.4,196.48,134.27,194.91,103.64,194.53z"/>
				<path class="st0" d="M90.85,177.24c-8.14-8.91-13.79-20.46-9.87-32.6C74.34,155.87,80.78,170.39,90.85,177.24z"/>
				<path class="st0" d="M109.51,177.44c-3.41-10.4-6.16-21.16-5.03-32.18C100.81,155.83,103.8,168.14,109.51,177.44z"/>
				<path class="st0" d="M128.5,153.1c-3.8,7.39-2.52,16.75,1.28,23.89c-1.04-6.03-2-11.84-1.85-17.88
					C127.99,157.12,128.22,155.15,128.5,153.1z"/>
				<path class="st0" d="M152.96,176.3c-0.58-5.54-1.4-10.85-0.88-16.43C149.08,164.81,149.97,171.55,152.96,176.3z"/>
				<path class="st0" d="M173.63,175.17c1.01-4.18,0.78-8.61-0.68-12.66C171.93,166.68,172.18,171.13,173.63,175.17z"/>
				<path class="st0" d="M197.71,151.38c-0.94,7.56-0.78,15.44-4.51,22.29C198.98,168.63,199.37,158.36,197.71,151.38z"/>
				<path class="st0" d="M205.42,174.99c12.75-5.55,18.95-19.89,11.21-32.18C221.47,156.26,216.56,166.82,205.42,174.99z"/>
				<path class="st0" d="M210.85,128.16c1.33,0.49,2.61,1.16,3.85,1.93c-0.99-1.08-2.19-1.99-3.48-2.73
					c-9.29-4.77-21.25-1.18-29.57,4.1C190.94,128.37,201.18,124.89,210.85,128.16z"/>
			</g>
		</g>
		<polygon class="st1" points="138.54,113.4 146.74,81.81 116.1,70.58 147.68,78.78 158.91,48.14 150.71,79.73 181.35,90.96 
			149.76,82.75 		"/>
		<polygon class="st1" points="129.6,95.96 147.13,80.59 133.53,61.65 148.91,79.18 167.84,65.58 150.31,80.95 163.92,99.89 
			148.54,82.36 		"/>
		<polygon class="st0" points="148.46,123.02 146.2,82.21 105.37,80.51 146.17,78.25 147.88,37.42 150.14,78.22 190.97,79.93 
			150.17,82.19 		"/>
	</g>
	<g>
		<path class="st0" d="M59.48,261.52v-1.69h7.27c0.45,0,0.8-0.12,1.05-0.35c0.24-0.23,0.37-0.54,0.37-0.92
			c0-0.42-0.12-0.73-0.37-0.94c-0.24-0.21-0.59-0.31-1.05-0.31H62.3c-0.45,0-0.86-0.07-1.23-0.21c-0.37-0.14-0.68-0.33-0.93-0.57
			c-0.25-0.24-0.45-0.54-0.59-0.87c-0.14-0.34-0.21-0.71-0.21-1.11c0-0.39,0.06-0.75,0.19-1.09c0.13-0.33,0.32-0.62,0.57-0.86
			c0.25-0.24,0.57-0.43,0.94-0.57c0.37-0.14,0.8-0.21,1.28-0.21h6.96v1.69h-6.96c-0.39,0-0.69,0.1-0.91,0.31s-0.32,0.5-0.32,0.87
			c0,0.37,0.11,0.66,0.33,0.87c0.22,0.2,0.51,0.31,0.89,0.31h4.44c0.99,0,1.74,0.23,2.25,0.69c0.51,0.46,0.77,1.17,0.77,2.11
			c0,0.41-0.06,0.79-0.19,1.13c-0.12,0.35-0.31,0.65-0.56,0.9c-0.25,0.25-0.56,0.45-0.94,0.59c-0.38,0.14-0.82,0.21-1.33,0.21H59.48
			z"/>
		<path class="st0" d="M78.15,258.82v-1.64h3.9c0.6,0,1.06-0.17,1.39-0.51c0.33-0.34,0.5-0.78,0.5-1.33c0-0.56-0.17-1-0.5-1.33
			c-0.33-0.33-0.8-0.49-1.39-0.49h-5.14v8h-1.68v-9.7h6.82c0.56,0,1.06,0.08,1.5,0.25c0.44,0.16,0.81,0.4,1.11,0.69
			c0.3,0.3,0.53,0.66,0.69,1.09c0.16,0.43,0.24,0.91,0.24,1.44c0,0.52-0.08,1-0.24,1.43c-0.16,0.43-0.39,0.8-0.69,1.11
			c-0.3,0.31-0.67,0.55-1.11,0.73c-0.44,0.17-0.94,0.26-1.5,0.26H78.15z"/>
		<path class="st0" d="M95.22,261.52c-0.68,0-1.3-0.13-1.87-0.38c-0.57-0.25-1.07-0.6-1.49-1.04c-0.42-0.44-0.75-0.96-0.99-1.57
			c-0.24-0.6-0.35-1.26-0.35-1.96c0-0.71,0.12-1.36,0.35-1.95c0.24-0.59,0.56-1.09,0.99-1.5c0.42-0.41,0.92-0.73,1.49-0.96
			c0.57-0.23,1.2-0.34,1.87-0.34h2.36c0.7,0,1.34,0.12,1.93,0.35c0.58,0.23,1.08,0.56,1.5,0.97c0.42,0.42,0.74,0.92,0.97,1.5
			c0.23,0.58,0.35,1.22,0.35,1.93s-0.12,1.36-0.35,1.96c-0.24,0.6-0.56,1.13-0.99,1.57c-0.42,0.44-0.92,0.79-1.5,1.04
			c-0.58,0.25-1.21,0.38-1.91,0.38H95.22z M97.58,259.82c0.44,0,0.85-0.08,1.23-0.24s0.7-0.38,0.97-0.66
			c0.27-0.28,0.48-0.62,0.63-1.01c0.15-0.39,0.23-0.81,0.23-1.27c0-0.45-0.08-0.87-0.23-1.26c-0.15-0.39-0.36-0.72-0.63-0.99
			c-0.27-0.28-0.59-0.49-0.97-0.65s-0.78-0.23-1.23-0.23h-2.36c-0.44,0-0.84,0.08-1.21,0.23c-0.37,0.16-0.69,0.37-0.95,0.65
			c-0.27,0.28-0.48,0.6-0.63,0.99s-0.23,0.8-0.23,1.27c0,0.45,0.08,0.88,0.23,1.27c0.15,0.39,0.36,0.73,0.63,1.01
			c0.27,0.28,0.58,0.5,0.95,0.66c0.37,0.16,0.77,0.24,1.21,0.24H97.58z"/>
		<path class="st0" d="M116.71,261.52l-2.45-2.69h-3.63v-1.49h4.04c0.61,0,1.08-0.17,1.39-0.5c0.31-0.33,0.47-0.82,0.47-1.45
			c0-0.63-0.16-1.1-0.49-1.41c-0.32-0.31-0.78-0.46-1.37-0.46h-5.28v8h-1.68v-9.7h6.96c0.55,0,1.04,0.08,1.48,0.25
			c0.44,0.16,0.8,0.4,1.11,0.71c0.3,0.31,0.53,0.68,0.69,1.11s0.24,0.92,0.24,1.47c0,0.81-0.18,1.49-0.53,2.03
			c-0.35,0.55-0.84,0.94-1.47,1.18l2.92,2.95H116.71z"/>
		<path class="st0" d="M127.1,261.52v-8h-3.68v-1.69h9.06v1.69h-3.68v8H127.1z"/>
		<path class="st0" d="M137.6,261.52v-1.69h7.27c0.45,0,0.8-0.12,1.05-0.35c0.24-0.23,0.37-0.54,0.37-0.92
			c0-0.42-0.12-0.73-0.37-0.94c-0.24-0.21-0.59-0.31-1.05-0.31h-4.46c-0.45,0-0.86-0.07-1.23-0.21c-0.37-0.14-0.68-0.33-0.93-0.57
			c-0.25-0.24-0.45-0.54-0.59-0.87c-0.14-0.34-0.21-0.71-0.21-1.11c0-0.39,0.06-0.75,0.19-1.09c0.13-0.33,0.32-0.62,0.57-0.86
			c0.25-0.24,0.57-0.43,0.94-0.57c0.37-0.14,0.8-0.21,1.28-0.21h6.96v1.69h-6.96c-0.39,0-0.69,0.1-0.91,0.31
			c-0.21,0.21-0.32,0.5-0.32,0.87c0,0.37,0.11,0.66,0.33,0.87c0.22,0.2,0.51,0.31,0.89,0.31h4.44c0.99,0,1.74,0.23,2.25,0.69
			c0.51,0.46,0.77,1.17,0.77,2.11c0,0.41-0.06,0.79-0.19,1.13c-0.12,0.35-0.31,0.65-0.56,0.9c-0.25,0.25-0.56,0.45-0.94,0.59
			c-0.38,0.14-0.82,0.21-1.33,0.21H137.6z"/>
		<path class="st0" d="M165.69,261.52c-0.68,0-1.3-0.13-1.87-0.38c-0.57-0.25-1.07-0.6-1.49-1.04c-0.42-0.44-0.75-0.96-0.99-1.57
			c-0.24-0.6-0.35-1.26-0.35-1.96c0-0.71,0.12-1.36,0.35-1.95c0.24-0.59,0.57-1.09,0.99-1.5c0.42-0.41,0.92-0.73,1.49-0.96
			c0.57-0.23,1.2-0.34,1.87-0.34h5.26v1.69h-5.26c-0.44,0-0.84,0.08-1.21,0.23s-0.69,0.37-0.95,0.65c-0.27,0.28-0.48,0.6-0.63,0.99
			c-0.15,0.38-0.23,0.8-0.23,1.27c0,0.45,0.08,0.88,0.23,1.27c0.15,0.39,0.36,0.73,0.63,1.01c0.27,0.28,0.58,0.5,0.95,0.66
			s0.77,0.24,1.21,0.24h4.15v-2.52h-4.37v-1.43h6.08v5.64H165.69z"/>
		<path class="st0" d="M187.22,261.52l-1.45-2.44h-4.59l0.8-1.37h2.97l-2.16-3.63l-4.4,7.44h-1.93l5.58-9.28
			c0.1-0.17,0.21-0.3,0.35-0.4c0.13-0.1,0.29-0.15,0.48-0.15c0.19,0,0.34,0.05,0.47,0.15c0.13,0.1,0.24,0.23,0.34,0.4l5.59,9.28
			H187.22z"/>
		<path class="st0" d="M206.38,261.52l-1.85-6.82l-2.75,6.31c-0.1,0.2-0.22,0.36-0.35,0.47c-0.14,0.11-0.31,0.17-0.51,0.17
			c-0.4,0-0.69-0.21-0.87-0.64l-2.73-6.31l-1.85,6.82h-1.67l2.49-9.12c0.12-0.46,0.4-0.69,0.84-0.69c0.18,0,0.34,0.05,0.5,0.15
			s0.27,0.24,0.35,0.43l2.99,6.86l2.99-6.86c0.16-0.38,0.43-0.57,0.81-0.57c0.41,0,0.68,0.23,0.81,0.69l2.48,9.12H206.38z"/>
		<path class="st0" d="M213.18,261.52v-9.7h8.66v1.69h-6.98v6.31h6.99v1.69H213.18z M216.1,257.3v-1.43h5.38v1.43H216.1z"/>
		<path class="st0" d="M227.31,261.52v-1.69h7.27c0.45,0,0.8-0.12,1.05-0.35c0.24-0.23,0.37-0.54,0.37-0.92
			c0-0.42-0.12-0.73-0.37-0.94c-0.24-0.21-0.59-0.31-1.05-0.31h-4.46c-0.45,0-0.86-0.07-1.23-0.21c-0.37-0.14-0.68-0.33-0.93-0.57
			c-0.25-0.24-0.45-0.54-0.59-0.87c-0.14-0.34-0.21-0.71-0.21-1.11c0-0.39,0.06-0.75,0.19-1.09c0.13-0.33,0.32-0.62,0.57-0.86
			c0.25-0.24,0.57-0.43,0.94-0.57c0.37-0.14,0.8-0.21,1.28-0.21h6.96v1.69h-6.96c-0.39,0-0.69,0.1-0.91,0.31
			c-0.21,0.21-0.32,0.5-0.32,0.87c0,0.37,0.11,0.66,0.33,0.87c0.22,0.2,0.51,0.31,0.89,0.31h4.44c0.99,0,1.74,0.23,2.25,0.69
			c0.51,0.46,0.77,1.17,0.77,2.11c0,0.41-0.06,0.79-0.19,1.13c-0.12,0.35-0.31,0.65-0.56,0.9c-0.25,0.25-0.56,0.45-0.94,0.59
			c-0.38,0.14-0.82,0.21-1.33,0.21H227.31z"/>
	</g>
</g>
</svg>
