<?xml version="1.0" encoding="utf-8"?>
<!-- Generator: Adobe Illustrator 24.1.2, SVG Export Plug-In . SVG Version: 6.00 Build 0)  -->
<svg version="1.1" id="Layer_1" xmlns="http://www.w3.org/2000/svg" xmlns:xlink="http://www.w3.org/1999/xlink" x="0px" y="0px"
	 viewBox="0 0 300 300" style="enable-background:new 0 0 300 300;" xml:space="preserve">
<style type="text/css">
	.st0{fill:#43CBDE;}
</style>
<g>
	<path class="st0" d="M253.42,150.1c-0.08,57.12-46.51,103.45-103.52,103.3C92.69,253.24,46.5,206.98,46.58,149.9
		C46.67,92.77,93.02,46.52,150.1,46.6C207.24,46.69,253.5,93.03,253.42,150.1z M149.88,183.28c0,0,0-0.01,0-0.01
		c5.93,0,11.87-0.04,17.8,0.03c1.29,0.01,2.02-0.4,2.66-1.53c5.59-9.77,11.26-19.48,16.81-29.27c0.4-0.71,0.4-2.06-0.02-2.76
		c-5.82-9.72-11.71-19.39-17.68-29.02c-0.43-0.7-1.6-1.33-2.43-1.34c-11.34-0.08-22.68-0.08-34.02,0.01
		c-0.84,0.01-2.01,0.62-2.44,1.32c-5.98,9.62-11.88,19.29-17.7,29.01c-0.41,0.69-0.41,2.04-0.01,2.75
		c5.51,9.72,11.17,19.36,16.68,29.08c0.81,1.42,1.74,1.77,3.22,1.75C138.46,183.24,144.17,183.28,149.88,183.28z M80.63,149.67
		c7.85-0.79,15.32-1.49,22.77-2.34c0.86-0.1,1.96-0.77,2.41-1.5c6.04-9.75,12.01-19.53,17.9-29.37c0.46-0.77,0.48-2.18,0.11-3.03
		c-3.03-6.93-6.24-13.78-9.31-20.69c-0.55-1.24-1.18-1.58-2.54-1.43c-8.13,0.87-16.27,1.58-24.39,2.49c-0.9,0.1-1.99,0.96-2.49,1.78
		c-5.5,8.93-10.88,17.94-16.36,26.89c-0.76,1.23-0.82,2.22-0.24,3.52c3.24,7.25,6.42,14.52,9.55,21.81
		C78.65,149.22,79.31,150.16,80.63,149.67z M188.28,91.34c-1.63-0.68-2.38,0.46-3.1,2.08c-2.97,6.71-6.09,13.36-9.02,20.09
		c-0.37,0.84-0.3,2.24,0.16,3.02c5.89,9.84,11.86,19.63,17.89,29.38c0.42,0.69,1.43,1.34,2.22,1.42c7.68,0.84,15.37,1.53,23.05,2.33
		c1.12,0.12,1.74-0.07,2.23-1.22c3.27-7.64,6.67-15.23,9.93-22.88c0.29-0.68,0.2-1.8-0.19-2.44c-5.56-9.34-11.18-18.64-16.85-27.91
		c-0.4-0.66-1.3-1.33-2.03-1.41C204.61,92.92,196.62,92.16,188.28,91.34z M184.96,212.51c-4.93-6.88-9.69-13.62-14.59-20.26
		c-0.49-0.66-1.76-1.04-2.67-1.04c-11.86-0.07-23.73-0.08-35.59,0.01c-0.93,0.01-2.19,0.61-2.74,1.35
		c-4.54,6.16-8.94,12.43-13.43,18.63c-0.68,0.93-0.78,1.58-0.02,2.54c4.66,5.88,9.23,11.84,13.91,17.71c0.47,0.59,1.46,1.1,2.22,1.1
		c11.94,0.07,23.88,0.06,35.82,0.01c0.71,0,1.66-0.38,2.08-0.91C174.96,225.36,179.88,219.02,184.96,212.51z M145.99,57.45
		c-3.44-0.63-6.88-2.05-10.13-1.69c-10.2,1.13-19.84,4.44-29,9.1c-9.64,4.9-18.22,11.22-26.12,19.5c2.01,0.61,3.69,1.65,5.28,1.53
		c7.85-0.59,15.67-1.45,23.5-2.29c2.14-0.23,4.5-0.2,6.35-1.12c9.73-4.83,19.33-9.91,28.94-14.97c0.53-0.28,1.1-1.06,1.12-1.64
		C146.05,63.19,145.99,60.5,145.99,57.45z M218.76,83.93c-0.3-0.35-0.57-0.7-0.88-1.02c-13.9-13.94-30.5-22.86-49.84-26.6
		c-2.23-0.43-4.6-0.62-6.84-0.37c-2.35,0.25-5.57,0.47-6.69,1.97c-1.21,1.61-0.35,4.73-0.53,7.17c-0.1,1.41,0.44,2.12,1.67,2.75
		c9.14,4.68,18.23,9.48,27.38,14.13c1.42,0.72,3.09,1.13,4.69,1.31c8.2,0.89,16.44,1.54,24.63,2.54
		C214.91,86.13,216.87,85.56,218.76,83.93z M57.54,126.57c-0.14,0.43-0.28,0.76-0.37,1.12c-4.22,17.88-3.24,35.48,2.29,52.98
		c1.69,5.35,5.37,8.8,9.12,12.48c0.92-0.54,1.71-1.17,2.6-1.49c2.39-0.87,2.81-2.51,2.67-4.89c-0.59-10.25-0.95-20.52-1.45-30.78
		c-0.05-1.01-0.35-2.07-0.76-3.01c-3.44-7.97-6.98-15.9-10.37-23.9C60.57,127.4,59.57,126.56,57.54,126.57z M242.78,126.53
		c-2.07,0.02-3.15,0.56-3.85,2.22c-3.46,8.13-7.06,16.2-10.55,24.31c-0.46,1.07-0.74,2.29-0.8,3.45
		c-0.48,9.59-0.87,19.18-1.31,28.76c-0.24,5.07-0.26,5.1,4.29,7.23c0.41,0.19,1.2,0.35,1.39,0.14c2.45-2.78,5.73-5.27,7.07-8.54
		c5.74-14.04,7.53-28.79,5.95-43.87C244.48,135.66,243.52,131.12,242.78,126.53z M178.07,241c0.29,0.01,0.45,0.06,0.58,0.02
		c0.65-0.18,1.3-0.35,1.94-0.57c16.39-5.65,30.26-15.01,41.69-28.06c2.12-2.42,3.67-4.99,4.42-8.16c0.97-4.11,1.07-4.01-2.56-6.3
		c-1.45-0.91-2.48-0.96-3.98,0.02c-8.22,5.38-16.56,10.56-24.79,15.94c-1.72,1.12-3.32,2.57-4.61,4.16
		c-4.21,5.18-8.26,10.49-12.36,15.76C175.79,237.15,175.79,237.16,178.07,241z M77.95,196.87c-1.38,0.8-2.7,1.67-4.1,2.35
		c-1.32,0.64-1.49,1.41-1.17,2.85c1.44,6.56,5.53,11.29,10.17,15.8c10.72,10.4,23.05,18.09,37.26,22.75
		c0.65,0.21,1.59,0.43,2.05,0.12c1.49-0.98,1.8-3.87,0.71-5.27c-4.88-6.27-9.77-12.54-14.67-18.78c-0.5-0.64-1.08-1.27-1.76-1.7
		c-9.08-5.83-18.18-11.62-27.28-17.42C78.79,197.34,78.4,197.13,77.95,196.87z"/>
</g>
</svg>
